name rise30.9205peak61.366fall85.3838.mot
datacolumns 19
datarows 32
range 11.88996000000000 11.94162700000000
endheader
time	ground_force1_vx	ground_force1_vy	ground_force1_vz	ground_force1_px	ground_force1_py	ground_force1_pz	ground_force2_vx	ground_force2_vy	ground_force2_vz	ground_force2_px	ground_force2_py	ground_force2_pz	ground_torque1_x	ground_torque1_y	ground_torque1_z	ground_torque2_x	ground_torque2_y	ground_torque2_z	
11.88996000000000	-47.21025400000000	816.75673500000005	66.47531900000000	0.13304000000000	0.00000000000000	0.11054300000000	-7.75333100000000	20.84792000000000	2.48120100000000	0.00000000000000	0.00000000000000	0.00000000000000	0.00000000000000	27.61912400000000	0.00000000000000	0.00000000000000	0.28200100000000	0.00000000000000	
11.89161900000000	-47.31436100000000	812.86856899999998	66.21936800000000	0.13227200000000	0.00000000000000	0.11045100000000	-9.38268200000000	26.64325400000000	3.00169000000000	0.32650900000000	0.00000000000000	-0.08635000000000	0.00000000000000	27.41905900000000	0.00000000000000	0.00000000000000	0.51381300000000	0.00000000000000	
11.89328600000000	-47.41838600000000	808.83931600000005	65.92705400000000	0.13152400000000	0.00000000000000	0.11035400000000	-10.97215600000000	32.82739300000000	3.50816000000000	0.33206500000000	0.00000000000000	-0.08718300000000	0.00000000000000	27.21409400000000	0.00000000000000	0.00000000000000	0.61352800000000	0.00000000000000	
11.89495600000000	-47.52306800000000	804.67187100000001	65.59842300000000	0.13079500000000	0.00000000000000	0.11025100000000	-12.46232600000000	39.28054200000000	3.98108700000000	0.33733500000000	0.00000000000000	-0.08792000000000	0.00000000000000	27.00461700000000	0.00000000000000	0.00000000000000	0.71085700000000	0.00000000000000	
11.89663000000000	-47.62914400000000	800.36918100000003	65.23360400000000	0.13008700000000	0.00000000000000	0.11014200000000	-13.79964900000000	45.88541800000000	4.40275500000000	0.34235100000000	0.00000000000000	-0.08857800000000	0.00000000000000	26.79101800000000	0.00000000000000	0.00000000000000	0.80209300000000	0.00000000000000	
11.89829200000000	-47.73735300000000	795.93423399999995	64.83281100000001	0.12940100000000	0.00000000000000	0.11002600000000	-14.94000700000000	52.53620000000000	4.75839500000000	0.34713500000000	0.00000000000000	-0.08916800000000	0.00000000000000	26.57369000000000	0.00000000000000	0.00000000000000	0.88377800000000	0.00000000000000	
11.89995400000000	-47.84842900000000	791.37004600000000	64.39634000000000	0.12873600000000	0.00000000000000	0.10990400000000	-15.85107900000000	59.14545000000000	5.03695800000000	0.35170700000000	0.00000000000000	-0.08970300000000	0.00000000000000	26.35302100000000	0.00000000000000	0.00000000000000	0.95291400000000	0.00000000000000	
11.90162700000000	-47.96309500000000	786.67964800000004	63.92456900000000	0.12809400000000	0.00000000000000	0.10977500000000	-16.51344100000000	65.64854200000001	5.23148300000000	0.35608300000000	0.00000000000000	-0.09018900000000	0.00000000000000	26.12940000000000	0.00000000000000	0.00000000000000	1.00709900000000	0.00000000000000	
11.90329300000000	-48.08206100000000	781.86607700000002	63.41795600000000	0.12747500000000	0.00000000000000	0.10963900000000	-16.92044800000000	72.00552000000000	5.33906900000000	0.36027400000000	0.00000000000000	-0.09063600000000	0.00000000000000	25.90320600000000	0.00000000000000	0.00000000000000	1.04460800000000	0.00000000000000	
11.90495800000000	-48.20602100000000	776.93236100000001	62.87703900000000	0.12687900000000	0.00000000000000	0.10949700000000	-17.07708700000000	78.20061000000000	5.36053000000000	0.36429200000000	0.00000000000000	-0.09104700000000	0.00000000000000	25.67481600000000	0.00000000000000	0.00000000000000	1.06440000000000	0.00000000000000	
11.90662100000000	-48.33564500000000	771.88151300000004	62.30243200000000	0.12630700000000	0.00000000000000	0.10934800000000	-16.99807400000000	84.23982700000001	5.29979200000000	0.36814600000000	0.00000000000000	-0.09142800000000	0.00000000000000	25.44459700000000	0.00000000000000	0.00000000000000	1.06606500000000	0.00000000000000	
11.90829400000000	-48.47157600000000	766.71651699999995	61.69482600000000	0.12575800000000	0.00000000000000	0.10919200000000	-16.70548100000000	90.14718900000000	5.16315200000000	0.37184300000000	0.00000000000000	-0.09178400000000	0.00000000000000	25.21290500000000	0.00000000000000	0.00000000000000	1.04973300000000	0.00000000000000	
11.90995400000000	-48.61442400000000	761.44031900000004	61.05498200000000	0.12523400000000	0.00000000000000	0.10903000000000	-16.22616000000000	95.96010400000000	4.95845800000000	0.37539000000000	0.00000000000000	-0.09211700000000	0.00000000000000	24.98008600000000	0.00000000000000	0.00000000000000	1.01594700000000	0.00000000000000	
11.91162100000000	-48.76476300000000	756.05581800000004	60.38373500000000	0.12473400000000	0.00000000000000	0.10886000000000	-15.58922600000000	101.72445000000000	4.69431200000000	0.37879200000000	0.00000000000000	-0.09243100000000	0.00000000000000	24.74647400000000	0.00000000000000	0.00000000000000	0.96551900000000	0.00000000000000	
11.91328900000000	-48.92312500000000	750.56585800000005	59.68198400000000	0.12425700000000	0.00000000000000	0.10868400000000	-14.82378100000000	107.48981100000000	4.37934800000000	0.38205600000000	0.00000000000000	-0.09272800000000	0.00000000000000	24.51238700000000	0.00000000000000	0.00000000000000	0.89939800000000	0.00000000000000	
11.91495200000000	-49.08999600000000	744.97321899999997	58.95069600000000	0.12380400000000	0.00000000000000	0.10850100000000	-13.95703200000000	113.30520100000000	4.02162700000000	0.38518400000000	0.00000000000000	-0.09301100000000	0.00000000000000	24.27813000000000	0.00000000000000	0.00000000000000	0.81853500000000	0.00000000000000	
11.91663200000000	-49.26580800000000	739.28061000000002	58.19089600000000	0.12337400000000	0.00000000000000	0.10831100000000	-13.01286400000000	119.21555499999999	3.62818700000000	0.38818100000000	0.00000000000000	-0.09328100000000	0.00000000000000	24.04399000000000	0.00000000000000	0.00000000000000	0.72378400000000	0.00000000000000	
11.91828700000000	-49.45093800000000	733.49066300000004	57.40366800000000	0.12296800000000	0.00000000000000	0.10811500000000	-12.01092100000000	125.25909799999999	3.20474500000000	0.39105100000000	0.00000000000000	-0.09353900000000	0.00000000000000	23.81023700000000	0.00000000000000	0.00000000000000	0.61581500000000	0.00000000000000	
11.91996000000000	-49.64570200000000	727.60592399999996	56.59015100000000	0.12258400000000	0.00000000000000	0.10791200000000	-10.96615800000000	131.46565400000000	2.75555100000000	0.39379700000000	0.00000000000000	-0.09378800000000	0.00000000000000	23.57712400000000	0.00000000000000	0.00000000000000	0.49507100000000	0.00000000000000	
11.92161900000000	-49.85035100000000	721.62885100000005	55.75153400000000	0.12222200000000	0.00000000000000	0.10770300000000	-9.88881900000000	137.85584499999999	2.28338300000000	0.39642100000000	0.00000000000000	-0.09402900000000	0.00000000000000	23.34488400000000	0.00000000000000	0.00000000000000	0.36174300000000	0.00000000000000	
11.92328800000000	-50.06506400000000	715.56180700000004	54.88905200000000	0.12188200000000	0.00000000000000	0.10748700000000	-8.78477600000000	144.44108499999999	1.78965000000000	0.39892800000000	0.00000000000000	-0.09426200000000	0.00000000000000	23.11373000000000	0.00000000000000	0.00000000000000	0.21577500000000	0.00000000000000	
11.92495300000000	-50.28994700000000	709.40705900000000	54.00398200000000	0.12156300000000	0.00000000000000	0.10726500000000	-7.65611500000000	151.22422000000000	1.27458000000000	0.40131800000000	0.00000000000000	-0.09448800000000	0.00000000000000	22.88385700000000	0.00000000000000	0.00000000000000	0.05689300000000	0.00000000000000	
11.92663200000000	-50.52502900000000	703.16676900000004	53.09764100000000	0.12126300000000	0.00000000000000	0.10703800000000	-6.50190700000000	158.20064500000001	0.73746700000000	0.40359500000000	0.00000000000000	-0.09470900000000	0.00000000000000	22.65543700000000	0.00000000000000	0.00000000000000	-0.11535600000000	0.00000000000000	
11.92828500000000	-50.77025500000000	696.84299799999997	52.17137700000000	0.12098300000000	0.00000000000000	0.10680400000000	-5.31905000000000	165.35973000000001	0.17693900000000	0.40576100000000	0.00000000000000	-0.09492400000000	0.00000000000000	22.42862300000000	0.00000000000000	0.00000000000000	-0.30154700000000	0.00000000000000	
11.92995400000000	-51.02548800000000	690.43769999999995	51.22657100000000	0.12072100000000	0.00000000000000	0.10656400000000	-4.10311700000000	172.68639600000000	-0.40876800000000	0.40781900000000	0.00000000000000	-0.09513500000000	0.00000000000000	22.20354500000000	0.00000000000000	0.00000000000000	-0.50232500000000	0.00000000000000	
11.93162300000000	-51.29050100000000	683.95272399999999	50.26462600000000	0.12047600000000	0.00000000000000	0.10631900000000	-2.84914500000000	180.16268099999999	-1.02155900000000	0.40976900000000	0.00000000000000	-0.09534300000000	0.00000000000000	21.98031500000000	0.00000000000000	0.00000000000000	-0.71834400000000	0.00000000000000	
11.93329300000000	-51.56497900000000	677.38981000000001	49.28696800000000	0.12024700000000	0.00000000000000	0.10606900000000	-1.55231600000000	187.76920000000001	-1.66325600000000	0.41161500000000	0.00000000000000	-0.09554600000000	0.00000000000000	21.75902100000000	0.00000000000000	0.00000000000000	-0.95022000000000	0.00000000000000	
11.93495900000000	-51.84851400000000	670.75059699999997	48.29503900000000	0.12003300000000	0.00000000000000	0.10581300000000	-0.20849500000000	195.48640599999999	-2.33542400000000	0.41335800000000	0.00000000000000	-0.09574700000000	0.00000000000000	21.53973100000000	0.00000000000000	0.00000000000000	-1.19848500000000	0.00000000000000	
11.93662400000000	-52.14060400000000	664.03661799999998	47.29029200000000	0.11983300000000	0.00000000000000	0.10555200000000	1.18537300000000	203.29559200000000	-3.03924500000000	0.41500000000000	0.00000000000000	-0.09594400000000	0.00000000000000	21.32249300000000	0.00000000000000	0.00000000000000	-1.46355400000000	0.00000000000000	
11.93828800000000	-52.44065400000000	657.24930800000004	46.27418900000000	0.11964500000000	0.00000000000000	0.10528700000000	2.63102400000000	211.17962600000001	-3.77543200000000	0.41654200000000	0.00000000000000	-0.09613900000000	0.00000000000000	21.10733300000000	0.00000000000000	0.00000000000000	-1.74570300000000	0.00000000000000	
11.93995200000000	-52.74797100000000	650.39000799999997	45.24819200000000	0.11946900000000	0.00000000000000	0.10501800000000	4.12877800000000	219.12340200000000	-4.54420100000000	0.41798800000000	0.00000000000000	-0.09633200000000	0.00000000000000	20.89425900000000	0.00000000000000	0.00000000000000	-2.04505300000000	0.00000000000000	
11.94162700000000	-53.06177000000000	643.45996800000000	44.21376500000000	0.11930300000000	0.00000000000000	0.10474400000000	5.67755600000000	227.11404500000000	-5.34526800000000	0.41933800000000	0.00000000000000	-0.09652300000000	0.00000000000000	20.68325600000000	0.00000000000000	0.00000000000000	-2.36157100000000	0.00000000000000	
